<svg width="26" height="26" viewBox="0 0 26 26" fill="none" xmlns="http://www.w3.org/2000/svg">
<path fill-rule="evenodd" clip-rule="evenodd" d="M24.8912 0.883413C25.477 1.4692 25.477 2.41895 24.8912 3.00473L15.008 12.8879L24.8912 22.7711C25.477 23.3569 25.477 24.3066 24.8912 24.8924C24.3054 25.4782 23.3557 25.4782 22.7699 24.8924L12.8867 15.0092L3.00353 24.8924C2.41775 25.4782 1.468 25.4782 0.882209 24.8924C0.296424 24.3066 0.296426 23.3569 0.882213 22.7711L10.7654 12.8879L0.882211 3.00473C0.296424 2.41895 0.296426 1.4692 0.882212 0.883413C1.468 0.297627 2.41775 0.297627 3.00353 0.883414L12.8867 10.7666L22.7699 0.883414C23.3557 0.297627 24.3054 0.297627 24.8912 0.883413Z" fill="white"/>
</svg>
