<svg width="1506" height="39" viewBox="0 0 1506 39" fill="none" xmlns="http://www.w3.org/2000/svg">
<rect width="2" height="39" rx="1" fill="#D9D9D9"/>
<rect x="16" width="2" height="39" rx="1" fill="#D9D9D9"/>
<rect x="32" width="2" height="39" rx="1" fill="#D9D9D9"/>
<rect x="48" width="2" height="39" rx="1" fill="#D9D9D9"/>
<rect x="64" width="2" height="39" rx="1" fill="#D9D9D9"/>
<rect x="80" width="2" height="39" rx="1" fill="#D9D9D9"/>
<rect x="96" width="2" height="39" rx="1" fill="#D9D9D9"/>
<rect x="112" width="2" height="39" rx="1" fill="#D9D9D9"/>
<rect x="128" width="2" height="39" rx="1" fill="#D9D9D9"/>
<rect x="144" width="2" height="39" rx="1" fill="#D9D9D9"/>
<rect x="160" width="2" height="39" rx="1" fill="#D9D9D9"/>
<rect x="176" width="2" height="39" rx="1" fill="#D9D9D9"/>
<rect x="192" width="2" height="39" rx="1" fill="#D9D9D9"/>
<rect x="208" width="2" height="39" rx="1" fill="#D9D9D9"/>
<rect x="224" width="2" height="39" rx="1" fill="#D9D9D9"/>
<rect x="240" width="2" height="39" rx="1" fill="#D9D9D9"/>
<rect x="256" width="2" height="39" rx="1" fill="#D9D9D9"/>
<rect x="272" width="2" height="39" rx="1" fill="#D9D9D9"/>
<rect x="288" width="2" height="39" rx="1" fill="#D9D9D9"/>
<rect x="304" width="2" height="39" rx="1" fill="#D9D9D9"/>
<rect x="320" width="2" height="39" rx="1" fill="#D9D9D9"/>
<rect x="336" width="2" height="39" rx="1" fill="#D9D9D9"/>
<rect x="352" width="2" height="39" rx="1" fill="#D9D9D9"/>
<rect x="368" width="2" height="39" rx="1" fill="#D9D9D9"/>
<rect x="384" width="2" height="39" rx="1" fill="#D9D9D9"/>
<rect x="400" width="2" height="39" rx="1" fill="#D9D9D9"/>
<rect x="416" width="2" height="39" rx="1" fill="#D9D9D9"/>
<rect x="432" width="2" height="39" rx="1" fill="#D9D9D9"/>
<rect x="448" width="2" height="39" rx="1" fill="#D9D9D9"/>
<rect x="464" width="2" height="39" rx="1" fill="#D9D9D9"/>
<rect x="480" width="2" height="39" rx="1" fill="#D9D9D9"/>
<rect x="496" width="2" height="39" rx="1" fill="#D9D9D9"/>
<rect x="512" width="2" height="39" rx="1" fill="#D9D9D9"/>
<rect x="528" width="2" height="39" rx="1" fill="#D9D9D9"/>
<rect x="544" width="2" height="39" rx="1" fill="#D9D9D9"/>
<rect x="560" width="2" height="39" rx="1" fill="#D9D9D9"/>
<rect x="576" width="2" height="39" rx="1" fill="#D9D9D9"/>
<rect x="592" width="2" height="39" rx="1" fill="#D9D9D9"/>
<rect x="608" width="2" height="39" rx="1" fill="#D9D9D9"/>
<rect x="624" width="2" height="39" rx="1" fill="#D9D9D9"/>
<rect x="640" width="2" height="39" rx="1" fill="#D9D9D9"/>
<rect x="656" width="2" height="39" rx="1" fill="#D9D9D9"/>
<rect x="672" width="2" height="39" rx="1" fill="#D9D9D9"/>
<rect x="688" width="2" height="39" rx="1" fill="#D9D9D9"/>
<rect x="704" width="2" height="39" rx="1" fill="#D9D9D9"/>
<rect x="720" width="2" height="39" rx="1" fill="#D9D9D9"/>
<rect x="736" width="2" height="39" rx="1" fill="#D9D9D9"/>
<rect x="752" width="2" height="39" rx="1" fill="#D9D9D9"/>
<rect x="768" width="2" height="39" rx="1" fill="#D9D9D9"/>
<rect x="784" width="2" height="39" rx="1" fill="#D9D9D9"/>
<rect x="800" width="2" height="39" rx="1" fill="#D9D9D9"/>
<rect x="816" width="2" height="39" rx="1" fill="#D9D9D9"/>
<rect x="832" width="2" height="39" rx="1" fill="#D9D9D9"/>
<rect x="848" width="2" height="39" rx="1" fill="#D9D9D9"/>
<rect x="864" width="2" height="39" rx="1" fill="#D9D9D9"/>
<rect x="880" width="2" height="39" rx="1" fill="#D9D9D9"/>
<rect x="896" width="2" height="39" rx="1" fill="#D9D9D9"/>
<rect x="912" width="2" height="39" rx="1" fill="#D9D9D9"/>
<rect x="928" width="2" height="39" rx="1" fill="#D9D9D9"/>
<rect x="944" width="2" height="39" rx="1" fill="#D9D9D9"/>
<rect x="960" width="2" height="39" rx="1" fill="#D9D9D9"/>
<rect x="976" width="2" height="39" rx="1" fill="#D9D9D9"/>
<rect x="992" width="2" height="39" rx="1" fill="#D9D9D9"/>
<rect x="1008" width="2" height="39" rx="1" fill="#D9D9D9"/>
<rect x="1024" width="2" height="39" rx="1" fill="#D9D9D9"/>
<rect x="1040" width="2" height="39" rx="1" fill="#D9D9D9"/>
<rect x="1056" width="2" height="39" rx="1" fill="#D9D9D9"/>
<rect x="1072" width="2" height="39" rx="1" fill="#D9D9D9"/>
<rect x="1088" width="2" height="39" rx="1" fill="#D9D9D9"/>
<rect x="1104" width="2" height="39" rx="1" fill="#D9D9D9"/>
<rect x="1120" width="2" height="39" rx="1" fill="#D9D9D9"/>
<rect x="1136" width="2" height="39" rx="1" fill="#D9D9D9"/>
<rect x="1152" width="2" height="39" rx="1" fill="#D9D9D9"/>
<rect x="1168" width="2" height="39" rx="1" fill="#D9D9D9"/>
<rect x="1184" width="2" height="39" rx="1" fill="#D9D9D9"/>
<rect x="1200" width="2" height="39" rx="1" fill="#D9D9D9"/>
<rect x="1216" width="2" height="39" rx="1" fill="#D9D9D9"/>
<rect x="1232" width="2" height="39" rx="1" fill="#D9D9D9"/>
<rect x="1248" width="2" height="39" rx="1" fill="#D9D9D9"/>
<rect x="1264" width="2" height="39" rx="1" fill="#D9D9D9"/>
<rect x="1280" width="2" height="39" rx="1" fill="#D9D9D9"/>
<rect x="1296" width="2" height="39" rx="1" fill="#D9D9D9"/>
<rect x="1312" width="2" height="39" rx="1" fill="#D9D9D9"/>
<rect x="1328" width="2" height="39" rx="1" fill="#D9D9D9"/>
<rect x="1344" width="2" height="39" rx="1" fill="#D9D9D9"/>
<rect x="1360" width="2" height="39" rx="1" fill="#D9D9D9"/>
<rect x="1376" width="2" height="39" rx="1" fill="#D9D9D9"/>
<rect x="1392" width="2" height="39" rx="1" fill="#D9D9D9"/>
<rect x="1408" width="2" height="39" rx="1" fill="#D9D9D9"/>
<rect x="1424" width="2" height="39" rx="1" fill="#D9D9D9"/>
<rect x="1440" width="2" height="39" rx="1" fill="#D9D9D9"/>
<rect x="1456" width="2" height="39" rx="1" fill="#D9D9D9"/>
<rect x="1472" width="2" height="39" rx="1" fill="#D9D9D9"/>
<rect x="1488" width="2" height="39" rx="1" fill="#D9D9D9"/>
<rect x="1504" width="2" height="39" rx="1" fill="#D9D9D9"/>
</svg>
