<svg width="29" height="30" viewBox="0 0 29 30" fill="none" xmlns="http://www.w3.org/2000/svg">
<path d="M16.6158 7.90432C17.771 8.1297 18.8326 8.69463 19.6648 9.52681C20.497 10.359 21.0619 11.4206 21.2872 12.5757M16.6158 3.17383C19.0157 3.44044 21.2536 4.51513 22.9622 6.22146C24.6706 7.92779 25.7482 10.1643 26.0177 12.5639M21.8785 25.6437C11.7548 25.6437 3.54785 17.4367 3.54785 7.31301C3.54785 6.85626 3.56456 6.40341 3.59739 5.95504C3.63507 5.44047 3.65391 5.18319 3.78875 4.94898C3.90044 4.75501 4.09836 4.57105 4.29998 4.47383C4.5434 4.35645 4.82731 4.35645 5.39512 4.35645H8.72694C9.20444 4.35645 9.44319 4.35645 9.64785 4.43504C9.82864 4.50446 9.98962 4.61721 10.1166 4.76339C10.2604 4.92888 10.342 5.15326 10.5052 5.602L11.8843 9.39449C12.0741 9.91659 12.1691 10.1776 12.153 10.4253C12.1388 10.6437 12.0642 10.8539 11.9376 11.0324C11.7941 11.2349 11.5559 11.3778 11.0795 11.6637L9.46097 12.6348C10.8824 15.7675 13.4229 18.3113 16.5567 19.7306L17.5279 18.112C17.8137 17.6355 17.9566 17.3974 18.1591 17.2539C18.3376 17.1274 18.5478 17.0527 18.7662 17.0386C19.0139 17.0225 19.275 17.1174 19.7971 17.3073L23.5895 18.6863C24.0382 18.8495 24.2627 18.9311 24.4281 19.0749C24.5743 19.2019 24.6871 19.3629 24.7564 19.5437C24.8351 19.7483 24.8351 19.9871 24.8351 20.4646V23.7964C24.8351 24.3642 24.8351 24.6482 24.7177 24.8915C24.6204 25.0932 24.4365 25.2911 24.2426 25.4028C24.0083 25.5376 23.7511 25.5564 23.2365 25.5941C22.7881 25.627 22.3353 25.6437 21.8785 25.6437Z" stroke="white" stroke-width="2.36525" stroke-linecap="round" stroke-linejoin="round"/>
</svg>
