<svg width="29" height="29" viewBox="0 0 29 29" fill="none" xmlns="http://www.w3.org/2000/svg">
<path fill-rule="evenodd" clip-rule="evenodd" d="M17.9419 6.83757C15.8824 6.83757 14.213 8.50706 14.213 10.5665C14.213 10.8185 14.2378 11.0635 14.2848 11.2996C14.3604 11.6799 14.249 12.0734 13.9852 12.3575C13.7214 12.6417 13.3373 12.782 12.9525 12.7348C10.2842 12.4074 7.85701 11.3049 5.90253 9.66138C5.9406 10.3887 6.19274 11.1613 6.73992 11.9707L7.56011 13.1839L6.21323 13.7587L5.95335 13.8696C6.14652 14.0905 6.37876 14.3174 6.63805 14.5404C6.93226 14.7933 7.21658 15.0035 7.42779 15.1505C7.53269 15.2235 7.61781 15.2796 7.67483 15.3165C7.7033 15.3349 7.72465 15.3483 7.73781 15.3565L7.75124 15.3648L7.75225 15.3656L9.62359 16.5001L7.66548 17.4792C7.56853 17.5276 7.47178 17.5709 7.37543 17.6093C7.76851 17.9405 8.24693 18.2455 8.75591 18.4861L10.4353 19.28L9.02883 20.4934C8.2611 21.1558 7.48883 21.6495 6.48794 21.9105C7.97099 22.7018 9.67032 23.1515 11.4783 23.1515C17.2844 23.1515 21.9608 18.518 21.9608 12.8395V12.2116L22.4746 11.8506C23.2767 11.2874 23.8438 10.5257 24.2498 9.6549H22.4021H21.6392L21.3112 8.96603C20.7108 7.705 19.4265 6.83757 17.9419 6.83757ZM4.31217 15.658C4.08439 15.9189 3.97639 16.2695 4.02593 16.6213C4.16224 17.5891 4.74184 18.4228 5.38229 19.0591C5.55622 19.2319 5.74223 19.3978 5.93755 19.5559C5.9077 19.5643 5.87763 19.5723 5.84727 19.5799C5.26563 19.7255 4.48187 19.7558 3.1748 19.6277C2.66947 19.5782 2.1871 19.8499 1.96751 20.3078C1.74792 20.7655 1.83796 21.3118 2.19287 21.6749C4.53947 24.0757 7.83484 25.5681 11.4783 25.5681C18.381 25.5681 24.043 20.2083 24.3632 13.4442C25.9211 12.1354 26.7011 10.3638 27.1219 8.75178C27.2165 8.38963 27.1378 8.00411 26.9089 7.7079C26.6802 7.41169 26.327 7.23824 25.9528 7.23824H23.1089C22.0158 5.54474 20.111 4.4209 17.9419 4.4209C14.7169 4.4209 12.072 6.90511 11.8165 10.0644C9.55815 9.47911 7.5767 8.20193 6.11236 6.46978C5.84527 6.15384 5.4351 5.9965 5.02523 6.05278C4.61536 6.10905 4.26277 6.3711 4.09072 6.74734C3.36006 8.34498 3.21926 10.1878 4.03708 12.06L3.75469 12.1805C3.19548 12.4192 2.90073 13.0363 3.06648 13.6212C3.28985 14.4096 3.79557 15.1058 4.31217 15.658Z" fill="white"/>
</svg>
